<svg width="36" height="26" viewBox="0 0 36 26" fill="none" xmlns="http://www.w3.org/2000/svg">
<g id="&#240;&#159;&#166;&#134; icon _hamburger menu 1" clip-path="url(#clip0_60_11)">
<path id="Vector" fill-rule="evenodd" clip-rule="evenodd" d="M1.38461 0C0.61992 0 0 0.646706 0 1.44445C0 2.24218 0.61992 2.88889 1.38461 2.88889H34.6153C35.38 2.88889 36 2.24218 36 1.44445C36 0.646706 35.38 0 34.6153 0H1.38461ZM0 13C0 12.2022 0.61992 11.5555 1.38461 11.5555H34.6153C35.38 11.5555 36 12.2022 36 13C36 13.7978 35.38 14.4445 34.6153 14.4445H1.38461C0.61992 14.4445 0 13.7978 0 13ZM0 24.5555C0 23.758 0.61992 23.1111 1.38461 23.1111H34.6153C35.38 23.1111 36 23.758 36 24.5555C36 25.3532 35.38 26 34.6153 26H1.38461C0.61992 26 0 25.3532 0 24.5555Z" fill="#495E57"/>
</g>
<defs>
<clipPath id="clip0_60_11">
<rect width="36" height="26" fill="white"/>
</clipPath>
</defs>
</svg>
